HIERARCHY
ROOT root
{
	OFFSET 0.000000 0.000000 0.000000
	CHANNELS 6 Xposition Yposition Zposition Zrotation Yrotation Xrotation
	JOINT lhip
	{
		OFFSET 0.058581 -0.082280 -0.017664
		CHANNELS 3 Zrotation Yrotation Xrotation
		JOINT lknee
		{
			OFFSET 0.043451 -0.386469 0.008037
			CHANNELS 3 Zrotation Yrotation Xrotation
			JOINT lankle
			{
				OFFSET -0.014790 -0.426874 -0.037428
				CHANNELS 3 Zrotation Yrotation Xrotation
				JOINT ltoe
				{
					OFFSET 0.041054 -0.060286 0.122042
					CHANNELS 3 Zrotation Yrotation Xrotation
					End Site
					{
						OFFSET 0.000000 0.000000 0.000000
					}
				}
			}
		}
	}
	JOINT rhip
	{
		OFFSET -0.060310 -0.090513 -0.013543
		CHANNELS 3 Zrotation Yrotation Xrotation
		JOINT rknee
		{
			OFFSET -0.043257 -0.383688 -0.004843
			CHANNELS 3 Zrotation Yrotation Xrotation
			JOINT rankle
			{
				OFFSET 0.019056 -0.420046 -0.034562
				CHANNELS 3 Zrotation Yrotation Xrotation
				JOINT rtoe
				{
					OFFSET -0.034840 -0.062106 0.130323
					CHANNELS 3 Zrotation Yrotation Xrotation
					End Site
					{
						OFFSET 0.000000 0.000000 0.000000
					}
				}
			}
		}
	}
	JOINT lowerback
	{
		OFFSET 0.004439 0.124404 -0.038385
		CHANNELS 3 Zrotation Yrotation Xrotation
		JOINT upperback
		{
			OFFSET 0.004488 0.137956 0.026820
			CHANNELS 3 Zrotation Yrotation Xrotation
			JOINT chest
			{
				OFFSET -0.002265 0.056032 0.002855
				CHANNELS 3 Zrotation Yrotation Xrotation
				JOINT lowerneck
				{
					OFFSET -0.013390 0.211636 -0.033468
					CHANNELS 3 Zrotation Yrotation Xrotation
					JOINT upperneck
					{
						OFFSET 0.010113 0.088937 0.050410
						CHANNELS 3 Zrotation Yrotation Xrotation
						End Site
						{
							OFFSET 0.000000 0.000000 0.000000
						}
					}
				}
				JOINT lclavicle
				{
					OFFSET 0.071702 0.114000 -0.018898
					CHANNELS 3 Zrotation Yrotation Xrotation
					JOINT lshoulder
					{
						OFFSET 0.122921 0.045205 -0.019046
						CHANNELS 3 Zrotation Yrotation Xrotation
						JOINT lelbow
						{
							OFFSET 0.255332 -0.015649 -0.022946
							CHANNELS 3 Zrotation Yrotation Xrotation
							JOINT lwrist
							{
								OFFSET 0.265709 0.012698 -0.007375
								CHANNELS 3 Zrotation Yrotation Xrotation
								End Site
								{
									OFFSET 0.000000 0.000000 0.000000
								}
							}
						}
					}
				}
				JOINT rclavicle
				{
					OFFSET -0.082954 0.112472 -0.023707
					CHANNELS 3 Zrotation Yrotation Xrotation
					JOINT rshoulder
					{
						OFFSET -0.113228 0.046853 -0.008472
						CHANNELS 3 Zrotation Yrotation Xrotation
						JOINT relbow
						{
							OFFSET -0.260127 -0.014369 -0.031269
							CHANNELS 3 Zrotation Yrotation Xrotation
							JOINT rwrist
							{
								OFFSET -0.269108 0.006794 -0.006027
								CHANNELS 3 Zrotation Yrotation Xrotation
								End Site
								{
									OFFSET 0.000000 0.000000 0.000000
								}
							}
						}
					}
				}
			}
		}
	}
}
MOTION
Frames: 10
Frame Time: 0.033333
0.064991 0.549191 0.868993 -30.253737 1.948164 92.172160 17.642325 15.200183 -23.612805 -0.983722 14.081702 54.928430 -1.731302 9.029225 -35.663959 0.000000 -0.000000 0.000000 -11.541118 0.506341 -40.722174 3.474344 2.758958 52.954525 5.586926 1.408922 -18.565034 0.000000 -0.000000 0.000000 -5.035210 -5.783739 25.412193 1.481912 -5.382763 0.726435 -0.355817 -3.306927 -2.555305 6.538867 -16.043442 -11.565110 6.328717 -19.376879 6.491222 -26.458719 -6.068111 1.463131 -39.707422 -3.475719 2.988910 14.286353 -57.478104 -6.086776 6.823364 -7.801485 -17.597020 16.792384 20.448460 -3.274755 34.082679 48.598668 7.220330 -147.450973 61.384487 -150.802568 -9.241241 15.505881 -66.209063 
0.064452 0.549098 0.868984 -31.374521 1.975483 92.093995 17.688962 15.416638 -23.100005 -0.834649 14.281484 54.907022 -1.351676 9.401168 -35.310083 0.000000 -0.000000 0.000000 -11.355901 0.736721 -40.976552 3.953236 3.119049 52.829224 5.315001 1.575329 -18.323550 0.000000 -0.000000 0.000000 -4.957992 -6.263413 25.208561 1.716254 -5.687653 0.987619 -0.336365 -3.717112 -2.434207 6.467002 -15.831425 -11.671333 6.257761 -19.354940 6.385504 -26.549906 -5.944905 1.498437 -39.740021 -3.479450 2.788662 14.348564 -57.555327 -5.758953 6.887874 -7.732131 -17.659693 16.599433 20.454951 -2.870882 33.596557 49.141919 6.700451 -147.682966 61.366345 -150.527184 -9.883170 15.433399 -67.016171 
0.063360 0.549086 0.869022 -32.261631 2.043949 92.265948 17.781385 15.815649 -22.966122 -0.559440 14.382757 54.886772 -1.702890 9.606994 -35.524482 0.000000 -0.000000 0.000000 -11.154698 1.101199 -41.417861 4.120718 3.289162 52.767722 5.407076 1.720285 -18.152544 0.000000 -0.000000 0.000000 -4.862034 -6.689979 24.924966 1.817424 -5.813588 0.994691 -0.368857 -3.737514 -2.353652 7.008360 -16.048095 -11.994119 6.184104 -19.609255 6.554655 -26.350160 -6.013327 1.547212 -40.002442 -3.662746 2.882877 13.939271 -57.469516 -5.271381 6.658881 -7.815890 -17.449886 16.743070 20.011812 -3.401677 34.079741 48.929265 7.226944 -148.138666 61.127986 -151.012064 -9.183259 15.677438 -66.797371 
0.062338 0.549229 0.868963 -32.888273 2.047415 92.363537 17.839032 15.934000 -22.784734 -0.374636 14.573711 54.833827 -1.592803 9.676705 -35.343186 0.000000 -0.000000 0.000000 -11.079339 1.333420 -41.663757 4.322712 3.383745 52.707286 5.356324 1.770758 -17.987730 0.000000 -0.000000 0.000000 -4.846156 -6.950984 24.703428 2.031432 -6.042034 1.156665 -0.261306 -3.821842 -2.348111 7.365599 -16.094796 -12.271723 5.909255 -19.458817 6.851946 -26.253552 -6.101370 1.774448 -40.444544 -3.998519 2.720126 14.209091 -57.518754 -5.088830 5.923575 -8.035284 -16.930966 16.621669 19.904227 -3.462929 33.731548 48.816393 6.995758 -148.735949 60.851304 -151.258384 -9.359878 16.295172 -66.852284 
0.061530 0.548789 0.869387 -33.276763 1.808239 92.350893 17.685417 15.776217 -22.413642 -0.255677 14.915147 54.607079 -1.703643 9.849993 -35.269311 0.000000 -0.000000 0.000000 -11.275290 1.355715 -41.709673 4.415933 3.450778 52.665080 5.454313 1.988091 -17.969779 0.000000 -0.000000 0.000000 -4.902807 -7.164240 24.696640 2.179748 -6.315603 1.060879 -0.205024 -3.967777 -2.345615 7.379693 -15.872699 -12.036310 5.775632 -19.399151 6.821675 -26.406707 -6.124536 1.911378 -40.567931 -4.174604 2.981096 14.004269 -57.506005 -4.811634 6.526863 -8.182440 -16.820628 16.737227 19.724904 -3.487450 33.608337 48.883106 7.244901 -149.052510 60.789963 -151.562399 -9.593013 15.894181 -67.079020 
0.060384 0.548311 0.869748 -33.471269 1.635692 92.371757 17.561388 15.814845 -22.127959 -0.268824 15.009047 54.329911 -1.534138 9.791218 -35.113978 0.000000 -0.000000 0.000000 -11.319493 1.282217 -41.686087 4.466476 3.620773 52.614391 5.387819 2.066977 -18.038506 0.000000 -0.000000 0.000000 -4.784291 -7.381236 24.575284 2.230441 -6.453434 0.968196 -0.187457 -4.122139 -2.359923 7.264400 -15.532051 -11.764115 5.559125 -18.769717 7.027362 -26.486630 -6.064515 1.755577 -40.850974 -4.303193 3.106651 13.615615 -57.458515 -4.023336 6.461223 -8.157291 -16.642752 16.544998 19.562114 -3.338527 33.910766 49.052162 7.513755 -148.923692 60.759343 -151.327413 -9.374919 15.342374 -67.125703 
0.059353 0.548723 0.869858 -33.366380 1.655582 92.586647 17.667141 15.750761 -22.300308 -0.374456 15.067808 54.178624 -1.456149 9.704147 -35.042068 0.000000 -0.000000 0.000000 -11.318284 1.351623 -41.871303 4.536430 3.498019 52.612626 5.179669 1.810914 -18.091788 0.000000 -0.000000 0.000000 -4.701533 -7.866776 24.556732 2.461552 -6.594469 0.809622 0.052815 -4.030513 -2.592569 7.182143 -14.589337 -11.822121 4.754724 -16.965483 7.751108 -26.668174 -5.871426 1.380035 -41.263440 -4.105069 3.190774 13.113033 -57.531152 -3.233945 5.937363 -8.435491 -16.486205 16.028735 19.709379 -2.979166 34.016717 49.447222 7.696246 -149.058027 60.927721 -151.639927 -9.158674 15.684856 -67.309048 
0.058039 0.549311 0.870420 -33.176916 1.394742 92.448597 17.562599 15.589779 -22.016902 -0.608305 15.063446 53.836169 -1.449842 9.663701 -34.882515 0.000000 -0.000000 0.000000 -11.489020 1.329075 -41.670511 4.538104 3.500507 52.683893 5.192692 1.619762 -18.130214 0.000000 -0.000000 0.000000 -4.369565 -7.846945 24.147338 2.247863 -6.497083 1.146777 -0.129291 -4.215555 -2.231624 7.086176 -12.408846 -12.015387 3.997245 -14.149334 8.564539 -26.633296 -6.501455 1.565367 -41.186898 -4.316746 3.237843 13.002262 -57.219641 -2.971756 5.972319 -8.489303 -16.420649 15.945511 19.916914 -3.076275 34.432665 50.164158 8.244261 -148.506565 61.812186 -151.182416 -9.221092 15.848388 -67.108883 
0.056847 0.549438 0.871138 -32.946051 1.226448 92.240947 17.530788 15.586721 -21.696390 -0.775488 14.979145 53.553485 -1.481212 9.528101 -34.773161 0.000000 -0.000000 0.000000 -11.554961 1.279323 -41.293452 4.493163 3.520989 52.659209 5.095026 1.504433 -18.259773 0.000000 -0.000000 0.000000 -3.955800 -7.961119 24.246734 2.007467 -6.236021 0.785483 -0.115600 -4.204983 -2.051284 6.668791 -9.400218 -11.820392 2.675153 -9.774186 9.868366 -26.712889 -6.938457 1.610143 -41.446498 -4.115342 3.271571 12.673186 -56.808800 -2.485404 6.078754 -8.522755 -16.187696 15.649260 20.422369 -3.200403 35.485911 51.011644 9.486464 -147.714240 63.099201 -150.699735 -9.510640 15.510965 -66.340867 
0.055607 0.550386 0.871620 -32.616094 0.999619 92.349871 17.438365 15.444972 -21.731844 -1.055845 15.023067 53.161540 -1.369690 9.532869 -34.515494 0.000000 -0.000000 0.000000 -11.711441 1.209798 -41.299195 4.598430 3.591235 52.652911 4.942070 1.075509 -18.398706 0.000000 -0.000000 0.000000 -3.507342 -8.030804 23.764266 1.693402 -5.801669 0.637089 -0.180364 -4.243373 -1.656521 6.495219 -5.811454 -11.842393 1.318964 -4.325217 11.111734 -26.885460 -7.217986 1.559930 -41.507872 -4.113616 3.360011 12.310623 -56.314455 -2.029420 6.031807 -8.741818 -16.136388 15.420017 20.961174 -2.774479 36.038466 52.616958 10.501423 -146.368060 64.781157 -149.766781 -9.494559 15.502563 -65.662128 
